# xmcd
#
# Track frame offsets:
#	150
#	18868
#	36466
#	52348
#	74793
#	92705
#	108794
#	129237
#	146221
#	170057
#	188320
#	203406
#	219270
#	238255
#	254915
#	274791
#	289741
#	303287
#
# Disc length: 4269 seconds
#
# Revision: 0
# Processed by: cddbd v1.5.2PL0 Copyright (c) Steve Scherf et al.
# Submitted via: EasyCDDAExtractor 2010.4.0.0
#
DISCID=1410ab12
DTITLE=Various Artist - Nostalgia Vol. 2
DYEAR=1900
DGENRE=
TTITLE0=Domenico Moduño - La Distancia Es Como El Viento
TTITLE1=Diego Verdager - Volveré
TTITLE2=Franco Simone - Paisaje
TTITLE3=Julio Iglesias - Hey!
TTITLE4=Roberto Carlos - Un Gato En La Oscuridad
TTITLE5=José Luis Perales - Sí
TTITLE6=Nino Bravo - Un Beso and Una Flor
TTITLE7=Janette - Reluz
TTITLE8=Abba - Chiquitita
TTITLE9=Sabu - Pequeña and Frágil
TTITLE10=Jairo - Morir Enamorado
TTITLE11=Sandro - Porque Yo Te Amo
TTITLE12=Demis Roussos - Morir Al Lado De Mi Amor
TTITLE13=Nicola Di Bari - Rosa
TTITLE14=Leonardo Favio - Chiquilladas
TTITLE15=Piero - Mi Viejo
TTITLE16=Joan Manuel Serrat - Poema De Amor
TTITLE17=José Luis Perales - Te Quiero
EXTD=
EXTT0=
EXTT1=
EXTT2=
EXTT3=
EXTT4=
EXTT5=
EXTT6=
EXTT7=
EXTT8=
EXTT9=
EXTT10=
EXTT11=
EXTT12=
EXTT13=
EXTT14=
EXTT15=
EXTT16=
EXTT17=
PLAYORDER=
